<svg xmlns="http://www.w3.org/2000/svg" xmlns:xlink="http://www.w3.org/1999/xlink" width="207.307" height="226.62" viewBox="0 0 207.307 226.62">
  <defs>
    <linearGradient id="linear-gradient" x1="1.646" y1="-1.402" x2="1.573" y2="0.954" gradientUnits="objectBoundingBox">
      <stop offset="0" stop-color="#a92d10"/>
      <stop offset="1" stop-color="#f37322"/>
    </linearGradient>
    <linearGradient id="linear-gradient-2" x1="4.011" y1="0.486" x2="0.535" y2="2.63" gradientUnits="objectBoundingBox">
      <stop offset="0" stop-color="#471814"/>
      <stop offset="1" stop-color="#d15b3d"/>
    </linearGradient>
    <linearGradient id="linear-gradient-3" x1="9.034" y1="-4.855" x2="9.02" y2="-2.452" gradientUnits="objectBoundingBox">
      <stop offset="0" stop-color="#7d3689"/>
      <stop offset="1" stop-color="#380b00"/>
    </linearGradient>
    <linearGradient id="linear-gradient-4" x1="13.118" y1="-4.855" x2="13.132" y2="-2.452" xlink:href="#linear-gradient-3"/>
    <linearGradient id="linear-gradient-5" x1="7.768" y1="0.618" x2="4.293" y2="2.762" xlink:href="#linear-gradient-2"/>
  </defs>
  <g id="Group_5674" data-name="Group 5674" transform="translate(-84 -206)">
    <g id="Group_5" data-name="Group 5" transform="translate(-301.074 -114.095)">
      <path id="Path_1825" data-name="Path 1825" d="M401.805,393.422A71.088,71.088,0,0,1,389.246,372.6a52.538,52.538,0,0,1-3.6-21.575,35.32,35.32,0,0,1,5.963-18.22,28.81,28.81,0,0,1,15.3-11.135c13.022-4.069,27.677.347,39.487,6.283,10.678-4.97,22.693-7.509,34.446-6.014a50.473,50.473,0,0,1,8.059,1.7,50.516,50.516,0,0,1,8.08-1.7c11.748-1.488,23.754,1.045,34.425,6.012,11.81-5.937,26.465-10.353,39.487-6.283a28.824,28.824,0,0,1,15.3,11.135,35.343,35.343,0,0,1,5.963,18.22,52.505,52.505,0,0,1-3.6,21.575,71.086,71.086,0,0,1-12.559,20.818,54.031,54.031,0,0,0,3.546,8.514,120.349,120.349,0,0,0,8.592,13.691l1.287,1.829-.776,2.089c-8.49,22.888-28.358,37.886-50.681,46.166a141.378,141.378,0,0,1-46.593,8.4v.026H488.9a142.212,142.212,0,0,1-49.064-8.429c-22.318-8.28-42.191-23.277-50.679-46.166l-.776-2.089,1.287-1.829a120.355,120.355,0,0,0,8.589-13.691,54.039,54.039,0,0,0,3.548-8.514Z" transform="translate(0 0)" fill="#380b00"/>
      <path id="Path_1826" data-name="Path 1826" d="M405.073,430.483c8.11-11.522,10.966-17.685,12.88-24.216-12.01-13.547-17.211-28.851-16.457-41.66a32.831,32.831,0,0,1,5.524-16.954,26.351,26.351,0,0,1,14.009-10.19c9.7-3.032,22.778-1.58,38.713,6.679,13.434-6.526,28.653-8.827,42.471-4.508l.071.021.071-.021c13.819-4.319,29.04-2.018,42.471,4.508,15.938-8.259,29.011-9.711,38.713-6.679a26.349,26.349,0,0,1,14.009,10.19,32.831,32.831,0,0,1,5.524,16.954c.754,12.809-4.447,28.113-16.454,41.66,1.912,6.531,4.767,12.694,12.878,24.216l.54.766-.323.872c-7.929,21.372-26.474,36.271-49.224,44.711a139.954,139.954,0,0,1-48.205,8.268v.007a139.918,139.918,0,0,1-48.2-8.276c-22.752-8.44-41.3-23.339-49.226-44.711l-.323-.872.54-.766Z" transform="translate(-13.387 -13.435)" fill="#380b00"/>
      <path id="Path_1827" data-name="Path 1827" d="M519.093,472.612a64.356,64.356,0,0,1,17.167-24.4c-3.8-3.148-9.188-3.688-13.866-2.174a15.352,15.352,0,0,0-5.512,3.112,12.166,12.166,0,0,0-3.435,5.081c-1.61,4.638-.476,10.916,5.647,18.378Z" transform="translate(-107.425 -105.669)" fill="#e7e6e1"/>
      <path id="Path_1828" data-name="Path 1828" d="M529.281,472.829a64.356,64.356,0,0,1,17.167-24.4,13.367,13.367,0,0,0-7.648-2.945,73.467,73.467,0,0,1-13.948,20.533,33.291,33.291,0,0,0,4.43,6.809Z" transform="translate(-117.614 -105.887)" fill="#a88981"/>
      <path id="Path_1829" data-name="Path 1829" d="M461.772,426.878c-2.461,10.343-3.892,16.348-14.736,31.878,7.712,19.845,25.279,33.767,46.8,41.75a136.351,136.351,0,0,0,46.968,8.052v.007a136.353,136.353,0,0,0,46.968-8.059c21.518-7.983,39.086-21.905,46.8-41.75-10.843-15.53-12.272-21.535-14.733-31.878-.99-4.157-2.15-9.03-4.171-15.5l-.2-.634c-4.562-13.91-15.766-26.338-29.452-34.175-13.646-7.811-29.724-11.027-44.08-6.54l-.578.184h-1.1l-.578-.184c-14.354-4.487-30.431-1.271-44.079,6.542-13.686,7.835-24.89,20.262-29.452,34.173l-.2.634c-2.023,6.467-3.183,11.341-4.171,15.5Z" transform="translate(-51.904 -40.443)" fill="url(#linear-gradient)"/>
      <path id="Path_1830" data-name="Path 1830" d="M521.395,666.452c8.622,8.462,19.647,14.983,31.97,19.555a124.407,124.407,0,0,0,17.923,5.116c-.054-.031-38.239-21.587-35.665-40.6,0,0,3.112,5.6,6.137,8.268-7.457-10.921-8.466-32.317,3.466-28.186,0,0-.4-1.867-4.534-1.11,0,0,2.98-2.712,6.314-.844,0,0,.978-2.042,2.7-4.871h0c.811-1.846-1.389-5.269-1.389-5.269a4.556,4.556,0,0,0,2.756-.311,2.625,2.625,0,0,1-1.4-2.134c7.868.587,9.339-9.768,18.4-9.645,13.04.182,20.375,13.286,15.16,24.541-3.911,8.448-20.807,13.427-20.807,13.427A16.291,16.291,0,0,0,549.984,654.7s5.515-7.335,12.939-7.736c0,0-7.158,2-10.447,8.535,0,0,7.512-5.38,12.314-6.045,0,0-6.18,2.711-9.2,6.8a33.955,33.955,0,0,1,8.047-3.647,19.936,19.936,0,0,0-4.711,7.071,44.892,44.892,0,0,1,5.557-4.536s-3.2,5.2-2.223,9.648c0,0,1.29-4.89,2.358-6.269a14.99,14.99,0,0,0,2.355,8.8,32.589,32.589,0,0,1-.622-5.736c7.243,21.453,60.873,21.453,68.116,0a32.622,32.622,0,0,1-.622,5.736,14.991,14.991,0,0,0,2.355-8.8c1.068,1.379,2.358,6.269,2.358,6.269.979-4.447-2.223-9.648-2.223-9.648a44.875,44.875,0,0,1,5.557,4.536,19.92,19.92,0,0,0-4.713-7.071,33.9,33.9,0,0,1,8.047,3.647c-3.023-4.091-9.2-6.8-9.2-6.8,4.8.665,12.314,6.045,12.314,6.045-3.289-6.536-10.447-8.535-10.447-8.535,7.424.4,12.939,7.736,12.939,7.736a16.291,16.291,0,0,0-12.449-10.315s-16.9-4.979-20.807-13.427c-5.213-11.256,2.122-24.36,15.16-24.541,9.063-.123,10.534,10.232,18.4,9.645a2.619,2.619,0,0,1-1.4,2.134,4.556,4.556,0,0,0,2.756.311s-2.2,3.423-1.389,5.269h0c1.726,2.829,2.7,4.871,2.7,4.871,3.334-1.867,6.314.844,6.314.844-4.135-.757-4.536,1.11-4.536,1.11,11.935-4.131,10.926,17.265,3.468,28.186,3.025-2.667,6.137-8.268,6.137-8.268,2.577,19.015-35.611,40.571-35.665,40.6a124.4,124.4,0,0,0,17.923-5.116c12.324-4.572,23.348-11.093,31.97-19.555,11.425-22.492-6.137-44.916-6.137-44.916,2.667,1.155,9.78,7.736,9.78,7.736-8.624-15.738-24.628-21.162-24.628-21.162a14,14,0,0,1,5.423-.533c-12.892-14.849-24.629-13.87-24.629-13.87,3.732-.889,10.136-.179,10.136-.179-11.737-6.757-25.607-.266-25.607-.266,1.865-2.313,8.535-5.512,8.535-5.512-9.693.889-17.339,7.556-17.339,7.556a27.4,27.4,0,0,1,4.267-7.646c-13.071,5.958-6.847,21.252-8.358,28.453-1.377,6.571-9.106,1.674-10.454.764-1.346.91-9.075,5.807-10.452-.764-1.511-7.2,4.713-22.495-8.358-28.453a27.317,27.317,0,0,1,4.267,7.646s-7.646-6.668-17.338-7.556c0,0,6.67,3.2,8.535,5.512,0,0-13.87-6.491-25.607.266,0,0,6.4-.71,10.136.179,0,0-11.737-.978-24.628,13.87a14,14,0,0,1,5.423.533s-16,5.425-24.628,21.162c0,0,7.113-6.58,9.782-7.736,0,0-17.565,22.424-6.139,44.916Z" transform="translate(-111.434 -225.942)" fill="#e7e6e1"/>
      <path id="Path_1831" data-name="Path 1831" d="M438.325,421.359c.243-.983.483-2,.736-3.056.948-3.977,2.049-8.608,3.94-14.766-8.29-9.275-9.785-17.383-7.674-23.454a15.71,15.71,0,0,1,4.423-6.554,18.941,18.941,0,0,1,6.788-3.848c5.937-1.919,12.861-1.1,17.664,3.214a75.469,75.469,0,0,1,10.381-7.163l.554-.314c-13.99-6.79-25.364-7.945-33.783-5.314a22.836,22.836,0,0,0-12.147,8.827,29.285,29.285,0,0,0-4.9,15.137c-.672,11.385,3.77,24.956,14.019,37.291Z" transform="translate(-32.654 -32.686)" fill="url(#linear-gradient-2)"/>
      <path id="Path_1832" data-name="Path 1832" d="M455.885,425.484c.243-.983.483-2,.736-3.056.948-3.978,2.049-8.608,3.94-14.766a41.491,41.491,0,0,1-5.449-7.521,57.19,57.19,0,0,1-10.077,7.021A64.508,64.508,0,0,0,455.885,425.484Zm17.188-52.452a16.537,16.537,0,0,1,8.688,3.987,75.479,75.479,0,0,1,10.381-7.163l.554-.314a67.836,67.836,0,0,0-16.961-5.856,75.109,75.109,0,0,1-2.662,9.346Z" transform="translate(-50.213 -36.81)" fill="rgba(55,52,53,0.21)"/>
      <g id="Group_2" data-name="Group 2" transform="translate(471.333 408.304)">
        <path id="Path_1833" data-name="Path 1833" d="M1011.6,899.916c3.744,0,6.781,1.125,6.781,2.508s-3.037,2.509-6.781,2.509-6.781-1.122-6.781-2.509S1007.853,899.916,1011.6,899.916Z" transform="translate(-994.253 -897.932)" fill="#f63"/>
        <g id="Group_1" data-name="Group 1" transform="translate(0 0)">
          <path id="Path_1834" data-name="Path 1834" d="M939.869,961.015c1.278,11.2,14.394,10.355,14.5,1.233.059-5.074,1.261-2.6,1.261-2.6l.75,5.937.622-5.953s1.151-2.5,1.318,2.575c.3,9.117,13.427,9.688,14.469-1.537,3.4,7.785-5.4,10.035-5.859,10.367s-4.319-.019-4.319-.019l-4.968-.148-1.252-4.1-1.165,4.119-4.963.255s-3.857.431-4.319.111-9.31-2.386-6.076-10.242Z" transform="translate(-938.808 -947.839)" fill="#d1c2b9"/>
          <path id="Path_1835" data-name="Path 1835" d="M1003.572,1035.128s-8.334.283-8.332.611.059,2.353.059,2.353-.773,4.225,5.185,4.947,8.768-.559,10.6-2.959,2.471-.807,2.655-1.985,1.528-.835-.7-1.66S1003.572,1035.128,1003.572,1035.128Z" transform="translate(-986.164 -1012.111)" fill="#ff6c6c"/>
          <path id="Path_1836" data-name="Path 1836" d="M1002.584,1035.356c-2.207.087-7.347.318-7.344.575,0,.328.059,2.353.059,2.353s-.773,4.225,5.185,4.946a16.378,16.378,0,0,0,6.825-.3c-.337-.347,4.366-.083.054-.674a3.76,3.76,0,0,1-3.546-4.492,5.852,5.852,0,0,0-1.233-2.407Z" transform="translate(-986.164 -1012.303)" fill="#d8566d"/>
          <path id="Path_1837" data-name="Path 1837" d="M944.641,891.977a10.693,10.693,0,0,0,8.615,9.784l.04,3.81c.047,4.272-17.683,7.71-15.337-5.236,0,0-4.131,7.132,3.9,10.374,4.569,11.527,21.007,11.355,25.331-.266,7.964-3.411,3.685-10.454,3.685-10.454,2.619,12.892-15.179,9.832-15.224,5.56l-.04-3.81a10.7,10.7,0,0,0,8.407-9.966c-4.171-6.243-15.344-6.125-19.383.205Zm2.056,22.252c2.044-5.475,7.853-1.61,7.853-1.61s5.727-3.987,7.889,1.443A10.433,10.433,0,0,1,946.7,914.229Zm7.639-21.945-.153,0c-2.521.026-4.569-.5-4.576-1.179s2.032-1.247,4.553-1.276h.151l.153,0c2.521-.026,4.569.5,4.576,1.179s-2.03,1.247-4.55,1.273l-.153,0Z" transform="translate(-936.898 -887.159)" fill="#380b00"/>
        </g>
      </g>
      <g id="Group_3" data-name="Group 3" transform="translate(439.276 382.414)">
        <path id="Path_1838" data-name="Path 1838" d="M761.458,744.508c-5.01-.153-7.943,2.256-12.406,2.784-8.752,1.035-13.644-4.314-13.675-13.682a5.737,5.737,0,0,1-4.562-1.627,9.088,9.088,0,0,0,3.97-.356,6.829,6.829,0,0,1-3.744-2.044s4.505.446,6.2-1.806c13.286-17.692,30.2,1.665,24.221,16.73Z" transform="translate(-730.815 -720.721)" fill="#380b00"/>
        <path id="Path_1839" data-name="Path 1839" d="M791.828,751.563a18.89,18.89,0,0,0-.875-12.736c-1.605-3.685-4.56-7.045-8.353-8.181-5.277-1.58-12.526,2.9-14.394,8.455-1.834,5.456,1.219,13.26,7.111,14.641,8.943,2.261,10.209-2.584,16.511-2.178Z" transform="translate(-761.942 -728.831)" fill="#dcd3d0"/>
        <path id="Path_1840" data-name="Path 1840" d="M789.712,733.328c5.835,0,10.565,5.123,10.565,11.446s-4.729,11.447-10.565,11.447S779.15,751.1,779.15,744.774,783.879,733.328,789.712,733.328Z" transform="translate(-771.631 -731.367)" fill="#380b00"/>
        <path id="Path_1841" data-name="Path 1841" d="M793.245,737.723c5.477,0,9.914,4.819,9.914,10.763s-4.437,10.761-9.914,10.761-9.912-4.817-9.912-10.761S787.77,737.723,793.245,737.723Z" transform="translate(-775.164 -735.078)" fill="url(#linear-gradient-3)"/>
        <path id="Path_1842" data-name="Path 1842" d="M815.414,737.723a9.22,9.22,0,0,1,3.829.832c2,1.584,3.355,4.628,3.355,8.122,0,5.128-2.914,9.285-6.507,9.285s-6.5-4.157-6.5-9.285c0-4.168,1.924-7.7,4.576-8.87a9.139,9.139,0,0,1,1.252-.085Z" transform="translate(-797.333 -735.078)" fill="#380b00"/>
        <path id="Path_1843" data-name="Path 1843" d="M863.791,784.618a2.335,2.335,0,1,1-2.219,2.332A2.277,2.277,0,0,1,863.791,784.618Z" transform="translate(-841.232 -774.679)" fill="#fefefe"/>
        <path id="Path_1844" data-name="Path 1844" d="M815.59,830.888a.577.577,0,1,1-.549.578A.562.562,0,0,1,815.59,830.888Zm-10.35,3.256a1.067,1.067,0,1,1-1.014,1.066A1.042,1.042,0,0,1,805.24,834.144Zm-3.155-3.449a.578.578,0,1,1-.549.578A.566.566,0,0,1,802.085,830.695Z" transform="translate(-790.535 -813.588)" fill="rgba(254,254,254,0.4)"/>
        <path id="Path_1845" data-name="Path 1845" d="M832.505,829.361a.578.578,0,1,1-.549.578A.564.564,0,0,1,832.505,829.361Z" transform="translate(-816.223 -812.462)" fill="#fefefe"/>
        <path id="Path_1846" data-name="Path 1846" d="M801.138,787.756a1.847,1.847,0,1,1-1.754,1.844A1.8,1.8,0,0,1,801.138,787.756Z" transform="translate(-788.718 -777.328)" fill="#fefefe"/>
      </g>
      <path id="Path_1847" data-name="Path 1847" d="M454.959,870.83a131.655,131.655,0,0,1-7.922,12.55c7.712,19.845,25.279,33.767,46.8,41.75a136.353,136.353,0,0,0,46.968,8.052v.007h.144v-.007a136.353,136.353,0,0,0,46.967-8.052c21.519-7.983,39.086-21.905,46.8-41.75a131.18,131.18,0,0,1-7.922-12.55h0s-6.932,51.813-85.917,55.191c-78.983-3.379-85.914-55.191-85.914-55.191h0Z" transform="translate(-51.904 -465.066)" fill="rgba(153,0,0,0.74)"/>
      <path id="Path_1848" data-name="Path 1848" d="M435.536,417.771a59.3,59.3,0,0,1-7.066-15.294,44.465,44.465,0,0,1-1.848-15.035,29.292,29.292,0,0,1,4.9-15.137,22.827,22.827,0,0,1,12.147-8.827,32.9,32.9,0,0,1,13.818-1.007,58.951,58.951,0,0,1,15.393,4.263q.845-.513,1.7-1.007l.554-.314a67.836,67.836,0,0,0-16.961-5.856h0a34.738,34.738,0,0,0-16.822.542,22.836,22.836,0,0,0-12.147,8.827,29.285,29.285,0,0,0-4.9,15.136,46.338,46.338,0,0,0,3.169,18.97h0a62.8,62.8,0,0,0,8.061,14.738Z" transform="translate(-32.656 -32.681)" fill="rgba(254,254,254,0.34)"/>
      <g id="Group_4" data-name="Group 4" transform="translate(506.783 382.414)">
        <path id="Path_1849" data-name="Path 1849" d="M1166.029,744.508c5.01-.153,7.943,2.256,12.406,2.784,8.752,1.035,13.644-4.314,13.674-13.682a5.736,5.736,0,0,0,4.562-1.627,9.1,9.1,0,0,1-3.973-.356,6.832,6.832,0,0,0,3.746-2.044s-4.506.446-6.2-1.806c-13.285-17.692-30.2,1.665-24.221,16.73Z" transform="translate(-1164.79 -720.721)" fill="#380b00"/>
        <path id="Path_1850" data-name="Path 1850" d="M1173.655,751.563a18.891,18.891,0,0,1,.875-12.736c1.605-3.685,4.56-7.045,8.353-8.181,5.277-1.58,12.529,2.9,14.394,8.455,1.834,5.456-1.219,13.26-7.111,14.641-8.943,2.261-10.209-2.584-16.511-2.178Z" transform="translate(-1171.66 -728.831)" fill="#dcd3d0"/>
        <path id="Path_1851" data-name="Path 1851" d="M1196.159,733.328c-5.835,0-10.565,5.123-10.565,11.446s4.729,11.447,10.565,11.447,10.562-5.126,10.562-11.447S1201.992,733.328,1196.159,733.328Z" transform="translate(-1182.358 -731.367)" fill="#380b00"/>
        <path id="Path_1852" data-name="Path 1852" d="M1199.691,737.723c-5.477,0-9.914,4.819-9.914,10.763s4.437,10.761,9.914,10.761,9.912-4.817,9.912-10.761S1205.166,737.723,1199.691,737.723Z" transform="translate(-1185.89 -735.078)" fill="url(#linear-gradient-4)"/>
        <path id="Path_1853" data-name="Path 1853" d="M1214.525,737.723a9.239,9.239,0,0,0-3.831.832c-2,1.584-3.35,4.628-3.35,8.122,0,5.128,2.912,9.285,6.5,9.285s6.505-4.157,6.505-9.285c0-4.168-1.924-7.7-4.577-8.87A9.141,9.141,0,0,0,1214.525,737.723Z" transform="translate(-1200.724 -735.078)" fill="#380b00"/>
        <path id="Path_1854" data-name="Path 1854" d="M1212.7,784.618a2.335,2.335,0,1,0,2.218,2.332A2.277,2.277,0,0,0,1212.7,784.618Z" transform="translate(-1203.373 -774.679)" fill="#fefefe"/>
        <path id="Path_1855" data-name="Path 1855" d="M1205.709,830.888a.577.577,0,1,0,.549.578A.562.562,0,0,0,1205.709,830.888Zm10.348,3.256a1.067,1.067,0,1,0,1.014,1.066A1.042,1.042,0,0,0,1216.057,834.144Zm3.155-3.449a.578.578,0,1,0,.549.578A.565.565,0,0,0,1219.212,830.695Z" transform="translate(-1198.88 -813.588)" fill="rgba(254,254,254,0.4)"/>
        <path id="Path_1856" data-name="Path 1856" d="M1262.107,829.361a.578.578,0,1,0,.547.578A.564.564,0,0,0,1262.107,829.361Z" transform="translate(-1246.505 -812.462)" fill="#fefefe"/>
        <path id="Path_1857" data-name="Path 1857" d="M1280.366,787.756a1.847,1.847,0,1,0,1.754,1.844A1.8,1.8,0,0,0,1280.366,787.756Z" transform="translate(-1260.904 -777.328)" fill="#fefefe"/>
      </g>
      <path id="Path_1858" data-name="Path 1858" d="M708.866,382.265c-13.927-7.814-33.479-10.36-48.13-5.875-14.648-4.484-34.2-1.938-48.128,5.875a70.173,70.173,0,0,0-23.629,21.351c5.576-10.977,15.181-20.573,26.479-27.04,13.649-7.814,29.726-11.029,44.079-6.543l.578.184h1.242l.578-.184c14.356-4.487,30.431-1.271,44.08,6.543,11.3,6.467,20.9,16.063,26.477,27.04A70.142,70.142,0,0,0,708.866,382.265Z" transform="translate(-171.767 -40.444)" fill="rgba(255,255,204,0.32)"/>
      <path id="Path_1859" data-name="Path 1859" d="M1454.043,472.612a64.358,64.358,0,0,0-17.166-24.4c3.793-3.148,9.188-3.688,13.865-2.174a15.322,15.322,0,0,1,5.51,3.112,12.151,12.151,0,0,1,3.438,5.081C1461.3,458.871,1460.166,465.15,1454.043,472.612Z" transform="translate(-887.77 -105.669)" fill="#e7e6e1"/>
      <path id="Path_1860" data-name="Path 1860" d="M1385.944,421.359c-.243-.983-.483-2-.736-3.056-.948-3.977-2.049-8.608-3.94-14.766,8.29-9.275,9.784-17.383,7.674-23.454a15.713,15.713,0,0,0-4.423-6.554,18.942,18.942,0,0,0-6.788-3.848c-5.937-1.919-12.859-1.1-17.664,3.214a75.459,75.459,0,0,0-10.381-7.163l-.554-.314c13.991-6.79,25.364-7.945,33.783-5.314a22.834,22.834,0,0,1,12.147,8.827,29.285,29.285,0,0,1,4.9,15.137c.672,11.385-3.77,24.956-14.019,37.291Z" transform="translate(-813.676 -32.686)" fill="url(#linear-gradient-5)"/>
      <path id="Path_1861" data-name="Path 1861" d="M1385.944,425.484c-.243-.983-.483-2-.736-3.056-.948-3.978-2.049-8.608-3.94-14.766a41.491,41.491,0,0,0,5.449-7.521,57.136,57.136,0,0,0,10.079,7.021A64.564,64.564,0,0,1,1385.944,425.484Zm-17.188-52.452a16.536,16.536,0,0,0-8.688,3.987,75.473,75.473,0,0,0-10.381-7.163l-.554-.314a67.835,67.835,0,0,1,16.961-5.856,75.115,75.115,0,0,0,2.662,9.346Z" transform="translate(-813.676 -36.81)" fill="rgba(55,52,53,0.21)"/>
      <path id="Path_1862" data-name="Path 1862" d="M1388.733,417.771a59.293,59.293,0,0,0,7.066-15.294,44.462,44.462,0,0,0,1.851-15.035,29.335,29.335,0,0,0-4.9-15.137,22.833,22.833,0,0,0-12.15-8.827,32.9,32.9,0,0,0-13.818-1.007,58.953,58.953,0,0,0-15.394,4.263q-.845-.513-1.7-1.007l-.554-.314a67.835,67.835,0,0,1,16.961-5.856h0a34.738,34.738,0,0,1,16.822.542,22.835,22.835,0,0,1,12.147,8.827,29.286,29.286,0,0,1,4.9,15.136,46.334,46.334,0,0,1-3.166,18.97h0a62.808,62.808,0,0,1-8.061,14.738Z" transform="translate(-813.673 -32.681)" fill="rgba(254,254,254,0.34)"/>
      <path id="Path_1863" data-name="Path 1863" d="M603.665,490.553l.542-.627-.377.042c-.057.2-.111.391-.165.585Zm4.909-9.344,12.038-6.932.042-.024a.856.856,0,0,0-.054-1.514l-4.414-2.117a.847.847,0,0,0-.962.153,58.2,58.2,0,0,0-7.627,8.891,1.1,1.1,0,0,0-.064.106l-.156.321a.854.854,0,0,0,1.2,1.115Zm14.962-15.32,12.993,1.191a.855.855,0,0,0,.729-1.407l-5.036-5.887a.846.846,0,0,0-1.018-.215q-1.39.665-2.692,1.4c-1.834,1.028-3.636,2.155-5.385,3.369a.855.855,0,0,0,.41,1.554Zm13.359-7.087,20.4,9.3a20.438,20.438,0,0,1,11.22,11.951,28.728,28.728,0,0,1,1.516,9.183c.042,2.2-.092,4.366-.236,6.547a.855.855,0,0,0,1.332.764l1.53-1.035a.849.849,0,0,1,.96,0l1.53,1.035a.855.855,0,0,0,1.332-.764c-.141-2.181-.278-4.35-.236-6.547.177-9.409,3.739-17.034,12.736-21.134l20.4-9.3a.855.855,0,0,0-.076-1.587c-10.85-3.744-23.817-4.664-34.071-1.523l-1.846.566a.829.829,0,0,1-.5,0l-1.846-.566c-10.254-3.141-23.221-2.221-34.071,1.523a.855.855,0,0,0-.075,1.587Zm77.16.983-5.036,5.887a.855.855,0,0,0,.728,1.407l13-1.191a.855.855,0,0,0,.408-1.554q-2.624-1.821-5.385-3.369-1.305-.732-2.693-1.4a.847.847,0,0,0-1.019.215Zm16.035,10.838-4.414,2.117a.854.854,0,0,0-.054,1.514l.042.024,11.843,6.818a.854.854,0,0,0,1.193-1.117c-.153-.314-.311-.627-.472-.938a.943.943,0,0,0-.066-.1,58.594,58.594,0,0,0-7.111-8.16.847.847,0,0,0-.962-.153ZM742.3,489.952l-.229-.026.33.382c-.033-.118-.068-.238-.1-.356Z" transform="translate(-184.168 -112.9)" fill="rgba(255,255,204,0.32)"/>
      <path id="Path_1864" data-name="Path 1864" d="M1454.043,472.829a64.358,64.358,0,0,0-17.166-24.4,13.366,13.366,0,0,1,7.648-2.945,73.47,73.47,0,0,0,13.948,20.533,33.38,33.38,0,0,1-4.43,6.809Z" transform="translate(-887.77 -105.887)" fill="#a88981"/>
    </g>
    <g id="Group_6" data-name="Group 6" transform="translate(0.153 -20.22)">
      <path id="Path_1865" data-name="Path 1865" d="M206,174.4q-1.44.8-3.04,1.68a31.819,31.819,0,0,0-3.12,2.08,19.87,19.87,0,0,0-2.96,2.72,17.752,17.752,0,0,0-2.48,3.68,21.232,21.232,0,0,0-2.16,6.24,49.728,49.728,0,0,0-.72,6.16,6.89,6.89,0,0,1-.72,2.96,2.016,2.016,0,0,1-1.84,1.44,2.856,2.856,0,0,1-2.48-1.52,11.632,11.632,0,0,1-1.2-3.04q-1.359-5.681-2.24-11.2-.879-5.6-1.52-11.12,0-1.12.64-1.44a3.179,3.179,0,0,1,1.6-.24,5.5,5.5,0,0,1,1.84.48,1.684,1.684,0,0,1,1.04,1.28q.321,2.96.8,6.24.48,3.2.96,5.52a14.064,14.064,0,0,1,1.76-5.28,21.321,21.321,0,0,1,3.52-4.64,22.234,22.234,0,0,1,4.8-3.52,18.426,18.426,0,0,1,5.52-1.92,6.208,6.208,0,0,1,2,0,1.848,1.848,0,0,1,1.12.56,1.43,1.43,0,0,1,.08,1.28A2.571,2.571,0,0,1,206,174.4Z" transform="translate(83.846 249)" fill="#db8758"/>
      <path id="Path_1866" data-name="Path 1866" d="M173.334,172.4q.321,2.24.48,4.8.24,2.479.32,5.04.16,2.561.16,4.96t-.08,4.32q2.561,1.759,3.04,3.12a3.183,3.183,0,0,1,.16,2.4,1.93,1.93,0,0,1-1.76,1.52,6,6,0,0,1-2.8-.88q-1.119.8-2.56,1.76-1.44.88-3.04,1.76-1.6.8-3.2,1.44a15.085,15.085,0,0,1-2.96.88,6.39,6.39,0,0,1-4.64-.96,6.827,6.827,0,0,1-2.72-4.08,9.9,9.9,0,0,1-.24-3.76,10.358,10.358,0,0,1,1.2-3.76,11.632,11.632,0,0,1,2.56-3.28,12.325,12.325,0,0,1,3.92-2.24,6.853,6.853,0,0,1,1.52-.4,9.065,9.065,0,0,1,2.08-.08,6.61,6.61,0,0,1,2.24.4,5.616,5.616,0,0,1,2.08,1.36q0-1.36-.08-2.96,0-1.68-.08-3.36t-.24-3.12q-.079-1.52-.24-2.56-.159-1.2-.96-1.44a2.473,2.473,0,0,0-1.84.08,17.6,17.6,0,0,0-4.48,2.48,58.268,58.268,0,0,0-4.88,3.92,2.045,2.045,0,0,1-1.68.64,2.4,2.4,0,0,1-1.52-.72,2.342,2.342,0,0,1-.72-1.44,2.676,2.676,0,0,1,.64-1.84q1.36-1.44,3.04-2.96a28.309,28.309,0,0,1,3.52-2.72,20.186,20.186,0,0,1,3.76-2.08,11.14,11.14,0,0,1,3.84-.88,5.992,5.992,0,0,1,4.32,1.28A5.279,5.279,0,0,1,173.334,172.4Zm-9.28,17.2a6.947,6.947,0,0,0-2.24,1.04,9.558,9.558,0,0,0-2.08,1.84,7.59,7.59,0,0,0-1.36,2.4,4.206,4.206,0,0,0,0,2.56,1.215,1.215,0,0,0,.64.72,1.836,1.836,0,0,0,1.2.08,20.122,20.122,0,0,0,4.32-1.52,15.557,15.557,0,0,0,3.92-2.56,2.333,2.333,0,0,0-.48-1.2,10.126,10.126,0,0,0-1.12-1.52,6.9,6.9,0,0,0-1.44-1.36A1.861,1.861,0,0,0,164.054,189.6Z" transform="translate(83.846 249)" fill="#db8758"/>
      <path id="Path_1867" data-name="Path 1867" d="M144.647,183.2a29,29,0,0,1-6.72,2.88,30.027,30.027,0,0,1-7.76.96,7.322,7.322,0,0,0,1.6,4.48,5.849,5.849,0,0,0,3.6,1.92,8.243,8.243,0,0,0,2.56-.08,11.222,11.222,0,0,0,2.48-.72,16.3,16.3,0,0,0,2.16-1.2,15.321,15.321,0,0,0,1.68-1.28,3.246,3.246,0,0,1,1.52-.8,1.928,1.928,0,0,1,1.2-.08q1.121.4.8,2.4a12.626,12.626,0,0,1-3.681,4.4,12.254,12.254,0,0,1-5.36,2.24,11.868,11.868,0,0,1-5.28-.24,11.031,11.031,0,0,1-4.88-2.8,12.347,12.347,0,0,1-2.8-4.32,18.838,18.838,0,0,1-1.2-5.12,12.628,12.628,0,0,1,.4-4.72,11.651,11.651,0,0,1,5.76-6.8,12.321,12.321,0,0,1,5.04-1.28,11.178,11.178,0,0,1,6.24,1.28,8.388,8.388,0,0,1,3.92,4.24,3.98,3.98,0,0,1,.32,2.64A3.3,3.3,0,0,1,144.647,183.2Zm-9.2-5.44a9.429,9.429,0,0,0-1.759.56,7.973,7.973,0,0,0-1.681,1.04,8.208,8.208,0,0,0-1.36,1.36,3.1,3.1,0,0,0-.64,1.68,20.038,20.038,0,0,0,2.96-.24q1.68-.24,3.2-.56a26.758,26.758,0,0,0,2.881-.88,11.071,11.071,0,0,0,2.239-1.04,3,3,0,0,0-2.4-1.84A8.293,8.293,0,0,0,135.447,177.76Z" transform="translate(83.846 249)" fill="#db8758"/>
      <path id="Path_1868" data-name="Path 1868" d="M100.884,202.8a5.205,5.205,0,0,1-1.68-1.2,3.876,3.876,0,0,1-.96-1.52q-.4-1.6-.88-3.92t-.96-4.96q-.48-2.64-.96-5.36-.4-2.8-.8-5.28Q94.244,178,94,176t-.32-3.2q0-1.279.88-1.44a2.669,2.669,0,0,1,2.96,1.52q.4,1.44.88,3.28t.96,4a14.105,14.105,0,0,0,3.44-1.84,11.849,11.849,0,0,0,2.48-2.4,8.4,8.4,0,0,0,1.44-2.72,5.043,5.043,0,0,0,.16-2.8,3.35,3.35,0,0,0-2.24-2.24,11.338,11.338,0,0,0-4.16-.72,13.409,13.409,0,0,0-5.76,1.2,20.949,20.949,0,0,0-4.56,2.8,2.467,2.467,0,0,1-2.08.48,2.2,2.2,0,0,1-1.6-1.52,4.25,4.25,0,0,1,.4-1.92,5.518,5.518,0,0,1,1.04-1.44,13.616,13.616,0,0,1,5.84-3.6,24.754,24.754,0,0,1,7.2-1.04,17.876,17.876,0,0,1,5.84.96,10.406,10.406,0,0,1,4.88,3.44,6.435,6.435,0,0,1,.96,3.36,9.406,9.406,0,0,1-.48,3.44,12.8,12.8,0,0,1-1.6,3.2,17.962,17.962,0,0,1-2,2.64,11.937,11.937,0,0,1,4.08.4,9.071,9.071,0,0,1,3.68,1.76,8.889,8.889,0,0,1,2.72,3.2,10.277,10.277,0,0,1,1.04,4.8,12,12,0,0,1-1.44,5.84,13.6,13.6,0,0,1-3.68,4.48,16.946,16.946,0,0,1-5.2,2.88,17.539,17.539,0,0,1-6,1.04,2.922,2.922,0,0,1-2.16-.8A1.173,1.173,0,0,1,100.884,202.8Zm-.32-16.8q.64,3.12,1.2,6.48t1.2,6.72h.32a13.111,13.111,0,0,0,3.84-.64,15.167,15.167,0,0,0,4-1.84,11.761,11.761,0,0,0,3.04-3.04,6.842,6.842,0,0,0,1.12-4.08,4.717,4.717,0,0,0-1.84-3.04,7.987,7.987,0,0,0-3.52-1.36,15.74,15.74,0,0,0-4.48,0A40.493,40.493,0,0,0,100.564,186Z" transform="translate(83.846 249)" fill="#db8758"/>
      <path id="Path_1869" data-name="Path 1869" d="M63.3,175.6q.24,1.2.48,2.72.32,1.44.64,3.04.32,1.52.56,3.12t.4,3.04q.96-2.081,2.08-4.4a35.293,35.293,0,0,1,2.4-4.24,17.611,17.611,0,0,1,2.8-3.28,5,5,0,0,1,3.28-1.28,5.721,5.721,0,0,1,4.4,1.92,15.414,15.414,0,0,1,3.04,4.8,30.923,30.923,0,0,1,2,5.92q.72,3.12,1.2,5.52.48,2.16-1.92,3.2-1.12.56-1.68.16a1.419,1.419,0,0,1-.64-.8,30.194,30.194,0,0,1-1.04-3.36q-.56-2.4-1.36-4.88a23.582,23.582,0,0,0-1.68-4.32q-.96-1.84-2.16-1.68-1.44.079-2.56,2.16-.96,1.68-2,3.76-.96,2-1.92,4.16-.96,2.08-1.92,4.24-.88,2.081-1.68,3.84a3.171,3.171,0,0,1-1.44.8,3.083,3.083,0,0,1-1.68-.16,2.638,2.638,0,0,1-1.28-.8,1.728,1.728,0,0,1-.48-1.12q-.72-6.24-1.52-11.36-.72-5.12-1.92-10.48a5.142,5.142,0,0,1-.24-2.88q.4-1.121,2.4-.88A4.046,4.046,0,0,1,63.3,175.6Z" transform="translate(83.846 249)" fill="#fbe6d3"/>
      <path id="Path_1870" data-name="Path 1870" d="M52.243,169.36a1.086,1.086,0,0,1-1.12.88q-.96.079-1.6.08a39.068,39.068,0,0,0-4.16.4,38.633,38.633,0,0,0-4.4.96,2.662,2.662,0,0,1-2.08-.24,2.721,2.721,0,0,1-1.36-2.24,1.29,1.29,0,0,1,.48-1.04,5.746,5.746,0,0,1,1.12-.72,12.307,12.307,0,0,1,2.48-.8,18.3,18.3,0,0,1,2.88-.56,17.643,17.643,0,0,1,2.88-.08,8.706,8.706,0,0,1,2.24.24,4.38,4.38,0,0,1,2,1.2A2.149,2.149,0,0,1,52.243,169.36ZM50.4,196a6.908,6.908,0,0,1,.56,2.8,2.038,2.038,0,0,1-.8,2,2.091,2.091,0,0,1-2.4-.08,5.014,5.014,0,0,1-1.92-2.16,15.247,15.247,0,0,1-1.36-4.08Q44,192,43.763,189.6t-.32-4.48V182a4.745,4.745,0,0,1,.64-2.08,2.107,2.107,0,0,1,1.44-1.12,2.906,2.906,0,0,1,2.32,1.36,4.648,4.648,0,0,1,.8,3.04q0,1.44.08,3.2t.32,3.52q.24,1.76.56,3.44A12,12,0,0,0,50.4,196Z" transform="translate(83.846 249)" fill="#fbe6d3"/>
      <path id="Path_1871" data-name="Path 1871" d="M14.4,202.8a5.2,5.2,0,0,1-1.68-1.2,3.878,3.878,0,0,1-.96-1.52q-.4-1.6-.88-3.92t-.96-4.96q-.48-2.64-.96-5.36-.4-2.8-.8-5.28Q7.76,178,7.52,176t-.32-3.2q0-1.279.88-1.44a2.669,2.669,0,0,1,2.96,1.52q.4,1.44.88,3.28t.96,4a14.106,14.106,0,0,0,3.44-1.84,11.866,11.866,0,0,0,2.48-2.4,8.426,8.426,0,0,0,1.44-2.72,5.049,5.049,0,0,0,.16-2.8,3.352,3.352,0,0,0-2.24-2.24,11.342,11.342,0,0,0-4.16-.72,13.41,13.41,0,0,0-5.76,1.2,20.953,20.953,0,0,0-4.56,2.8,2.467,2.467,0,0,1-2.08.48A2.2,2.2,0,0,1,0,170.4a4.25,4.25,0,0,1,.4-1.92,5.52,5.52,0,0,1,1.04-1.44,13.617,13.617,0,0,1,5.84-3.6,24.755,24.755,0,0,1,7.2-1.04,17.881,17.881,0,0,1,5.84.96,10.408,10.408,0,0,1,4.88,3.44,6.435,6.435,0,0,1,.96,3.36,9.436,9.436,0,0,1-.48,3.44,12.833,12.833,0,0,1-1.6,3.2,18.011,18.011,0,0,1-2,2.64,11.941,11.941,0,0,1,4.08.4,9.077,9.077,0,0,1,3.68,1.76,8.892,8.892,0,0,1,2.72,3.2,10.285,10.285,0,0,1,1.04,4.8,12,12,0,0,1-1.44,5.84,13.609,13.609,0,0,1-3.68,4.48,16.958,16.958,0,0,1-5.2,2.88,17.539,17.539,0,0,1-6,1.04,2.92,2.92,0,0,1-2.16-.8A1.17,1.17,0,0,1,14.4,202.8ZM14.08,186q.64,3.12,1.2,6.48t1.2,6.72h.32a13.118,13.118,0,0,0,3.84-.64,15.177,15.177,0,0,0,4-1.84,11.766,11.766,0,0,0,3.04-3.04,6.847,6.847,0,0,0,1.12-4.08,4.719,4.719,0,0,0-1.84-3.04,7.989,7.989,0,0,0-3.52-1.36,15.74,15.74,0,0,0-4.48,0A40.471,40.471,0,0,0,14.08,186Z" transform="translate(83.846 249)" fill="#fbe6d3"/>
    </g>
  </g>
</svg>
